<svg xmlns="http://www.w3.org/2000/svg" viewBox="0 0 260 64" role="img" aria-labelledby="title desc">
  <title id="title">OutreachOps logo</title>
  <desc id="desc">Grid with outreach and medical symbols</desc>
  <defs>
    <linearGradient id="g" x1="0" y1="0" x2="1" y2="1">
      <stop offset="0" stop-color="#5baab2"/>
      <stop offset="1" stop-color="#2f7f8a"/>
    </linearGradient>
  </defs>
  <rect width="260" height="64" fill="none"/>
  <g transform="translate(4 6)">
    <g fill="url(#g)">
      <rect x="0" y="12" width="28" height="10" rx="1" transform="skewX(-12)"/>
      <rect x="32" y="12" width="28" height="10" rx="1" transform="skewX(-12)"/>
      <rect x="64" y="12" width="28" height="10" rx="1" transform="skewX(-12)"/>
      <rect x="96" y="12" width="28" height="10" rx="1" transform="skewX(-12)"/>
      <rect x="128" y="12" width="28" height="10" rx="1" transform="skewX(-12)"/>
      <rect x="0" y="24" width="28" height="10" rx="1" transform="skewX(-12)"/>
      <rect x="32" y="24" width="28" height="10" rx="1" transform="skewX(-12)"/>
      <rect x="64" y="24" width="28" height="10" rx="1" transform="skewX(-12)"/>
      <rect x="96" y="24" width="28" height="10" rx="1" transform="skewX(-12)"/>
      <rect x="128" y="24" width="28" height="10" rx="1" transform="skewX(-12)"/>
      <rect x="0" y="36" width="28" height="10" rx="1" transform="skewX(-12)"/>
      <rect x="32" y="36" width="28" height="10" rx="1" transform="skewX(-12)"/>
      <rect x="64" y="36" width="28" height="10" rx="1" transform="skewX(-12)"/>
      <rect x="96" y="36" width="28" height="10" rx="1" transform="skewX(-12)"/>
      <rect x="128" y="36" width="28" height="10" rx="1" transform="skewX(-12)"/>
    </g>
    <rect x="66" y="12" width="28" height="10" rx="1" transform="skewX(-12)" fill="#e6a132"/>
    <rect x="98" y="36" width="28" height="10" rx="1" transform="skewX(-12)" fill="#e6a132"/>
    <path d="M42 2c-5.2 0-9.4 4.2-9.4 9.4 0 6.1 9.4 17.2 9.4 17.2S51.5 17.5 51.5 11.4C51.5 6.2 47.3 2 42 2zm0 13.4a4 4 0 1 1 0-8 4 4 0 0 1 0 8z" fill="#1f7f89" stroke="#ecf9fc" stroke-width="1.3"/>
    <path d="M3 35c6 0 12.2.8 14.3 3.6 1.2 1.5 1.4 4.5.6 7.4l-4.8-.6-1.6 3.1-4.4.4c-2.5-3.7-5.7-7.2-7.1-11.5.8-1.5 1.8-2.4 3-2.4z" fill="#e6a132" stroke="#fff" stroke-width="1"/>
    <circle cx="137" cy="17" r="11" fill="#ebedef"/>
    <rect x="135" y="10" width="4" height="14" fill="#2f7f8a"/>
    <rect x="130" y="15" width="14" height="4" fill="#2f7f8a"/>
  </g>
  <text x="174" y="40" font-family="Inter, Arial, sans-serif" font-size="24" font-weight="700" text-anchor="middle" fill="#303640">OutreachOps</text>
</svg>
